<svg viewBox="-11 0 512 512.00002" xmlns="http://www.w3.org/2000/svg"><path d="m490.480469 266.761719c0 135.441406-109.796875 245.238281-245.242188 245.238281-135.441406 0-245.238281-109.796875-245.238281-245.238281 0-135.445313 109.796875-245.242188 245.238281-245.242188 135.445313 0 245.242188 109.796875 245.242188 245.242188zm0 0" fill="#ffb456"/><path d="m473.597656 265.757812v-163.316406c0-18.449218-16.996094-32.152344-35.097656-28.332031-11.558594 2.441406-23.464844 3.679687-35.386719 3.679687-53.226562 0-102.410156-24.226562-134.929687-66.472656-5.535156-7.191406-13.90625-11.316406-22.96875-11.316406-9.066406 0-17.4375 4.125-22.972656 11.316406-32.523438 42.246094-81.703126 66.472656-134.929688 66.472656-12.238281 0-24.449219-1.304687-36.289062-3.875-17.589844-3.8125-34.195313 9.53125-34.195313 27.507813v164.335937c0 47.355469 12.226563 94.230469 35.355469 135.554688 13.386718 23.921875 30.277344 45.699219 49.949218 64.609375 40.277344 28.992187 89.691407 46.078125 143.105469 46.078125 53.316407 0 102.648438-17.019531 142.882813-45.910156 19.742187-18.949219 36.691406-40.785156 50.121094-64.777344 23.128906-41.324219 35.355468-88.199219 35.355468-135.554688zm0 0" fill="#ff5856"/><path d="m231.8125 508.78125c-41.980469-25.964844-76.910156-62.453125-101.03125-105.550781-24.273438-43.367188-37.101562-92.558594-37.101562-142.261719v-176.625c0-2.9375 1.582031-5.480469 3.898437-6.859375-3.402344.199219-6.824219.304687-10.265625.304687-12.238281 0-24.449219-1.304687-36.292969-3.875-17.585937-3.8125-34.191406 9.53125-34.191406 27.507813v164.335937c0 47.355469 12.226563 94.230469 35.355469 135.554688 13.386718 23.921875 30.277344 45.699219 49.949218 64.609375 38.289063 27.558594 84.839844 44.351563 135.230469 45.941406zm0 0" fill="#db4040"/><path d="m168.132812 470.035156 73.894532 41.003906c1.980468 1.101563 4.386718 1.101563 6.367187 0l73.894531-41.003906c34.605469-21.402344 63.398438-51.484375 83.28125-87.007812 20.007813-35.75 30.585938-76.300782 30.585938-117.269532v-145.597656c0-3.917968-3.417969-7-7.308594-6.515625-8.519531 1.050781-17.125 1.582031-25.734375 1.582031-58.902343 0-113.738281-24.3125-153.023437-67.285156-2.628906-2.878906-7.121094-2.878906-9.75 0-46.484375 50.84375-113.050782 73.828125-178.761719 65.703125-3.890625-.480469-7.308594 2.597657-7.308594 6.515625v145.597656c0 40.96875 10.574219 81.519532 30.585938 117.269532 19.878906 35.523437 48.671875 65.605468 83.277343 87.007812zm0 0" fill="#db4040"/><path d="m130.78125 403.230469c-24.273438-43.367188-37.101562-92.558594-37.101562-142.261719v-145.84375c-10.332032.308594-20.882813-.09375-32.101563-1.480469-3.890625-.480469-7.308594 2.597657-7.308594 6.515625v145.597656c0 40.96875 10.574219 81.519532 30.585938 117.269532 19.882812 35.527344 48.675781 65.605468 83.28125 87.007812l38.988281 21.636719c-31.039062-23.96875-57.125-54.105469-76.34375-88.441406zm0 0" fill="#cc3636"/><path d="m245.214844 158.449219c-27.46875 0-49.8125 22.347656-49.8125 49.808593v67.480469c0 5.132813 4.164062 9.296875 9.296875 9.296875 5.132812 0 9.292969-4.164062 9.292969-9.296875v-67.480469c0-17.210937 14.007812-31.21875 31.222656-31.21875 17.210937 0 31.21875 14.007813 31.21875 31.21875v10.460938c0 5.132812 4.160156 9.292969 9.292968 9.292969 5.132813 0 9.296876-4.160157 9.296876-9.292969v-10.460938c0-27.460937-22.34375-49.808593-49.808594-49.808593zm0 0" fill="#ecebed"/><path d="m239.617188 167.574219c0-3.773438 1.894531-7.105469 4.777343-9.101563-27.085937.4375-48.992187 22.597656-48.992187 49.789063v67.476562c0 5.136719 4.164062 9.296875 9.296875 9.296875 5.132812 0 9.292969-4.160156 9.292969-9.296875v-67.476562c0-17.136719 13.878906-31.085938 30.988281-31.214844-3.210938-1.941406-5.363281-5.449219-5.363281-9.472656zm0 0" fill="#d4d1da"/><g fill="#ff5856"><path d="m366.621094 284.460938-19.214844-7.960938c-4.742188-1.964844-6.996094-7.402344-5.03125-12.144531 1.964844-4.746094 7.402344-6.992188 12.144531-5.03125l19.21875 7.960937c4.742188 1.964844 6.992188 7.402344 5.03125 12.144532-1.96875 4.75-7.417969 6.992187-12.148437 5.03125zm0 0"/><path d="m342.375 228.398438c-1.964844-4.742188.289062-10.179688 5.03125-12.140626l19.214844-7.960937c4.742187-1.964844 10.183594.285156 12.148437 5.027344 1.960938 4.742187-.289062 10.183593-5.03125 12.144531l-19.21875 7.960938c-4.761719 1.972656-10.183593-.304688-12.144531-5.03125zm0 0"/><path d="m316.949219 202.976562c-4.742188-1.964843-6.992188-7.402343-5.027344-12.144531l7.957031-19.21875c1.964844-4.742187 7.40625-6.996093 12.144532-5.027343 4.746093 1.964843 6.996093 7.398437 5.03125 12.144531l-7.957032 19.214843c-1.96875 4.75-7.417968 6.992188-12.148437 5.03125zm0 0"/></g><path d="m299.121094 266.089844h-107.816406c-8.433594 0-15.328126 6.898437-15.328126 15.328125v83.132812c0 8.429688 6.894532 15.328125 15.328126 15.328125h107.816406c8.429687 0 15.328125-6.898437 15.328125-15.328125v-83.128906c0-8.433594-6.898438-15.332031-15.328125-15.332031zm0 0" fill="#ffb456"/><path d="m204.875 364.550781v-83.132812c0-8.429688 6.898438-15.328125 15.328125-15.328125h-28.898437c-8.433594 0-15.328126 6.898437-15.328126 15.328125v83.132812c0 8.429688 6.894532 15.328125 15.328126 15.328125h28.898437c-8.429687 0-15.328125-6.898437-15.328125-15.328125zm0 0" fill="#fc974d"/><path d="m244.003906 287.875c-10.890625.609375-19.667968 9.71875-19.898437 20.628906-.15625 7.523438 3.65625 14.175782 9.476562 18.03125 1.464844.972656 2.335938 2.628906 2.335938 4.386719v6.832031c0 4.949219 3.734375 9.269532 8.675781 9.589844 5.414062.351562 9.914062-3.933594 9.914062-9.273438v-7.296874c0-1.667969.8125-3.242188 2.207032-4.152344 5.773437-3.769532 9.609375-10.269532 9.609375-17.667969 0-12.042969-10.132813-21.761719-22.320313-21.078125zm0 0" fill="#fc974d"/><path d="m244.003906 287.875c-1.511718.085938-2.972656.347656-4.386718.742188 8.902343 2.480468 15.457031 10.652343 15.457031 20.335937 0 7.394531-3.832031 13.898437-9.609375 17.667969-1.394532.910156-2.207032 2.484375-2.207032 4.148437v7.300781c0 3-1.421874 5.664063-3.625 7.363282 1.386719 1.089844 3.085938 1.789062 4.960938 1.910156 5.414062.351562 9.914062-3.9375 9.914062-9.273438v-7.300781c0-1.664062.8125-3.238281 2.207032-4.148437 5.777344-3.769532 9.609375-10.273438 9.609375-17.667969 0-12.042969-10.132813-21.761719-22.320313-21.078125zm0 0" fill="#f47f31"/></svg>