<?xml version="1.0"?>
<svg xmlns="http://www.w3.org/2000/svg" xmlns:xlink="http://www.w3.org/1999/xlink" version="1.1" id="Capa_1" x="0px" y="0px" viewBox="0 0 512 512" style="enable-background:new 0 0 512 512;" xml:space="preserve" width="512px" height="512px" class=""><g><path style="fill:#3BBC56;" d="M443.07,159.857c-3.616-6.916-10.577-8.73-10.888-8.808  c-46.024-9.945-130.052-38.828-175.708-120.529c-0.219-0.402-0.873-0.429-1.127-0.005C209.695,112.214,125.675,141.1,79.646,151.049  c-0.29,0.069-7.152,1.757-10.846,8.712c-3.143,5.916-2.94,13.706,0.615,23.184c12.225,27.068,26.798,76.469,26.798,158.1  c0,48.674,27.622,88.449,79.879,115.026c25.705,13.072,56.955,22.396,79.808,25.719c21.289-2.916,53.527-12.342,79.83-25.719  c52.257-26.577,79.878-66.353,79.878-115.026c0-81.628,14.572-131.028,26.809-158.127  C445.942,173.521,446.162,165.762,443.07,159.857z" data-original="#3BBC56" class=""/><path style="fill:#F2F2F2;" d="M233.525,330.352l-42.256-42.681c-5.97-6.03-5.921-15.758,0.108-21.728  c6.03-5.973,15.758-5.921,21.728,0.108l31.204,31.518l62.367-64.548c5.896-6.102,15.622-6.269,21.725-0.373  s6.269,15.622,0.373,21.724l-73.282,75.845C249.486,336.434,239.555,336.442,233.525,330.352z" data-original="#F2F2F2"/><path style="fill:#31AA3F;" d="M154.228,332.945c0-95.54-15.063-157.607-29.707-195.365c-42.325,15.9-49.492,9.921-55.777,21.759  c-3.072,5.781-2.861,13.429,0.627,22.732c12.249,27.117,26.845,76.59,26.845,158.312c0,48.469,27.525,88.084,79.597,114.568  c27.406,13.936,54.49,20.8,68.928,23.757C185.442,443.208,154.228,393.142,154.228,332.945z" data-original="#31AA3F" class=""/><path style="fill:#8DD83D" d="M255.911,512c-1.354,0-2.739-0.094-4.122-0.276c-1.889-0.259-45.533-6.417-89.393-28.719  C103.771,453.188,66,405.385,66,341.047c0-76.254-13.115-121.3-24.117-145.659c-0.266-0.586-0.525-1.21-0.761-1.839  c-14.729-39.272,7.706-66.171,31.472-71.88c66.234-15.604,123.503-47.057,156.38-105.892c11.752-21.021,42.105-21.048,53.872-0.005  c39.869,71.349,114.666,96.875,155.703,105.738c0.434,0.096,0.784,0.18,1.133,0.269c28.891,7.297,45.213,40.569,30.246,73.637  c-10.99,24.331-24.105,69.377-24.105,145.63c0,30.351-8.447,58.052-25.106,82.332c-16.339,23.817-40.325,43.877-71.289,59.625  c-43.861,22.304-87.505,28.462-89.342,28.714C258.65,511.906,257.264,512,255.911,512z M255.796,30.766  c-45.751,81.876-129.928,110.818-176.033,120.783c-0.285,0.067-6.94,1.731-10.51,8.453c-3.07,5.781-2.859,13.429,0.629,22.732  c12.248,27.117,26.844,76.59,26.844,158.312c0,48.469,27.524,88.084,79.598,114.568c35.391,17.997,75.643,25.658,79.576,25.658  c1.78-0.242,40.377-5.713,79.597-25.658c52.074-26.484,79.597-66.101,79.597-114.568c0-81.722,14.597-131.195,26.842-158.308  c3.472-9.257,3.699-16.874,0.678-22.643c-3.503-6.7-10.255-8.472-10.541-8.544c-46.118-9.965-130.292-38.9-176.051-120.786  C255.977,30.681,255.849,30.679,255.796,30.766z" data-original="#8DD83D" class="" data-old_color="#8DD83D"/></g> </svg>
